<svg width="48" height="48" viewBox="0 0 48 48" fill="none" xmlns="http://www.w3.org/2000/svg">
<rect width="48" height="48" rx="20" fill="#E2AD39"/>
<path d="M28.7231 33.8466C28.4227 33.8466 28.1395 33.6916 27.9789 33.4315L24.7142 28.1485C24.5993 27.9625 24.5582 27.7404 24.5989 27.5255L25.3289 23.6711L21.4745 24.4009C21.2598 24.4413 21.0373 24.4004 20.8515 24.2855L15.5685 21.0213C15.2744 20.8395 15.1149 20.5018 15.1613 20.1594C15.2077 19.817 15.4512 19.5338 15.783 19.4367L33.7256 14.1887C34.0321 14.0992 34.3641 14.1836 34.5901 14.4099C34.8164 14.6361 34.901 14.9676 34.8113 15.2746L29.5633 33.2173C29.4664 33.549 29.1832 33.7925 28.8406 33.8389C28.8012 33.8439 28.7618 33.8466 28.7231 33.8466Z" fill="#272725"/>
<path d="M16.4983 33.377C16.2742 33.377 16.0503 33.2914 15.8792 33.1205C15.5374 32.7788 15.5374 32.2245 15.8792 31.8829L22.0287 25.7334C22.3707 25.3914 22.9248 25.3914 23.2666 25.7334C23.6083 26.0752 23.6083 26.6295 23.2666 26.971L17.1173 33.1208C16.9462 33.2917 16.7223 33.377 16.4983 33.377Z" fill="#272725"/>
<path d="M20.9388 33.7808C20.7148 33.7808 20.4909 33.6952 20.3198 33.5243C19.978 33.1825 19.978 32.6283 20.3198 32.2867L22.6342 29.9723C22.9762 29.6303 23.5302 29.6303 23.872 29.9723C24.2138 30.3141 24.2138 30.8684 23.872 31.2099L21.5579 33.5243C21.387 33.6954 21.1629 33.7808 20.9388 33.7808Z" fill="#272725"/>
<path d="M16.0946 28.9364C15.8705 28.9364 15.6466 28.8508 15.4755 28.6799C15.1337 28.3382 15.1337 27.7839 15.4755 27.4423L17.7899 25.128C18.1319 24.786 18.6859 24.786 19.0277 25.128C19.3695 25.4697 19.3695 26.024 19.0277 26.3656L16.7134 28.6799C16.5425 28.8508 16.3186 28.9364 16.0946 28.9364Z" fill="#272725"/>
</svg>
