<svg width="48" height="48" viewBox="0 0 48 48" fill="none" xmlns="http://www.w3.org/2000/svg">
<rect width="48" height="48" rx="20" fill="#E2AD39"/>
<g clip-path="url(#clip0_473_452)">
<path d="M25.2818 32.8382C24.4312 32.8382 23.5674 32.7149 22.7101 32.4552C17.7852 30.9637 14.9341 25.5436 16.3542 20.3728C17.0422 17.8678 18.618 15.7938 20.7913 14.5333C22.9648 13.2727 25.4754 12.9761 27.8611 13.6989C28.2095 13.8043 28.4106 14.1864 28.3101 14.5522C28.2097 14.918 27.846 15.1289 27.4975 15.0234C25.4485 14.4033 23.2925 14.6576 21.4261 15.74C19.5596 16.8224 18.2065 18.6034 17.6157 20.7546C16.3962 25.195 18.8447 29.8498 23.0739 31.1305C27.3029 32.4111 31.7361 29.8397 32.9557 25.3993C33.0562 25.0335 33.4196 24.8222 33.7684 24.9278C34.1168 25.0333 34.3178 25.4154 34.2174 25.7811C33.0441 30.0523 29.318 32.8382 25.2818 32.8382Z" fill="#272725"/>
<path d="M29.5692 15.887C29.4585 15.887 29.346 15.8576 29.2431 15.7956L29.1561 15.7441C28.8388 15.5598 28.7239 15.1403 28.8994 14.8072C29.0751 14.4742 29.4744 14.3532 29.7915 14.5379L29.8965 14.5999C30.2112 14.7895 30.3197 15.2106 30.139 15.5408C30.018 15.7627 29.7967 15.887 29.5692 15.887Z" fill="#272725"/>
<path d="M33.7249 21.8209C33.4229 21.8209 33.1514 21.601 33.0842 21.2787C33.07 21.21 33.0544 21.1415 33.0385 21.0735C32.9514 20.7041 33.1658 20.3302 33.5179 20.2386C33.8706 20.1471 34.2257 20.3725 34.313 20.742C34.3321 20.8224 34.35 20.903 34.3669 20.9841C34.4443 21.3561 34.2198 21.7235 33.8658 21.8046C33.8183 21.8158 33.7713 21.8209 33.7249 21.8209ZM32.8897 19.4597C32.656 19.4597 32.4297 19.3285 32.3111 19.0974C32.2792 19.0354 32.2466 18.9738 32.2133 18.9127C32.0328 18.5825 32.1413 18.1611 32.4555 17.9716C32.7698 17.7821 33.1713 17.8958 33.3518 18.2259C33.3912 18.2978 33.4295 18.37 33.4667 18.4428C33.6387 18.778 33.5194 19.1962 33.2004 19.3768C33.1015 19.4331 32.9949 19.4597 32.8897 19.4597ZM31.4687 17.4287C31.2976 17.4287 31.1265 17.3588 30.998 17.2196C30.9512 17.1693 30.9042 17.1197 30.8562 17.0705C30.5963 16.8051 30.5908 16.3686 30.8438 16.0959C31.0965 15.8229 31.5125 15.8172 31.772 16.0828C31.8286 16.1407 31.8847 16.1995 31.9396 16.259C32.1923 16.5322 32.1862 16.9685 31.9262 17.2336C31.7984 17.3641 31.6335 17.4287 31.4687 17.4287Z" fill="#272725"/>
<path d="M33.9165 24.2178C33.9047 24.2178 33.8931 24.2176 33.8813 24.2169C33.5192 24.1967 33.2413 23.8722 33.2603 23.4922L33.2649 23.3898C33.2776 23.0091 33.5804 22.7076 33.9441 22.7251C34.3065 22.7386 34.5898 23.0578 34.5771 23.4382L34.5719 23.5651C34.5528 23.9327 34.2631 24.2178 33.9165 24.2178Z" fill="#272725"/>
<path d="M28.637 26.7058C28.4977 26.7058 28.3574 26.6596 28.2384 26.5638L24.612 23.6469C24.4498 23.5164 24.3547 23.3142 24.3547 23.0996V17.4164C24.3547 17.0357 24.6485 16.7272 25.0111 16.7272C25.3737 16.7272 25.6675 17.0357 25.6675 17.4164V22.7593L29.0366 25.4693C29.3245 25.7009 29.379 26.1335 29.1587 26.4356C29.0294 26.6128 28.8344 26.7058 28.637 26.7058Z" fill="#272725"/>
<path d="M26.2402 16.1085C26.1176 16.1085 25.9953 16.0726 25.8874 16.0005C25.6636 15.8507 25.5476 15.5738 25.5938 15.2995L26.0253 12.73C26.0712 12.4554 26.2704 12.2369 26.5297 12.1767C26.79 12.1158 27.0574 12.2261 27.2095 12.4543L28.2174 13.9656C28.4254 14.2776 28.3532 14.7072 28.0563 14.9255L26.617 15.9837C26.5038 16.0669 26.3719 16.1085 26.2402 16.1085Z" fill="#272725"/>
</g>
<g clip-path="url(#clip1_473_452)">
<path d="M25.2818 32.8382C24.4312 32.8382 23.5674 32.7149 22.7101 32.4552C17.7852 30.9637 14.9341 25.5436 16.3542 20.3728C17.0422 17.8678 18.618 15.7938 20.7913 14.5333C22.9648 13.2727 25.4754 12.9761 27.8611 13.6989C28.2095 13.8043 28.4106 14.1864 28.3101 14.5522C28.2097 14.918 27.846 15.1289 27.4975 15.0234C25.4485 14.4033 23.2925 14.6576 21.4261 15.74C19.5596 16.8224 18.2065 18.6034 17.6157 20.7546C16.3962 25.195 18.8447 29.8498 23.0739 31.1305C27.3029 32.4111 31.7361 29.8397 32.9557 25.3993C33.0562 25.0335 33.4196 24.8222 33.7684 24.9278C34.1168 25.0333 34.3178 25.4154 34.2174 25.7811C33.0441 30.0523 29.318 32.8382 25.2818 32.8382Z" fill="#272725"/>
<path d="M29.5692 15.887C29.4585 15.887 29.346 15.8576 29.2431 15.7956L29.1561 15.7441C28.8388 15.5598 28.7239 15.1403 28.8994 14.8072C29.0751 14.4742 29.4744 14.3532 29.7915 14.5379L29.8965 14.5999C30.2112 14.7895 30.3197 15.2106 30.139 15.5408C30.018 15.7627 29.7967 15.887 29.5692 15.887Z" fill="#272725"/>
<path d="M33.7249 21.8209C33.4229 21.8209 33.1514 21.601 33.0842 21.2787C33.07 21.21 33.0544 21.1415 33.0385 21.0735C32.9514 20.7041 33.1658 20.3302 33.5179 20.2386C33.8706 20.1471 34.2257 20.3725 34.313 20.742C34.3321 20.8224 34.35 20.903 34.3669 20.9841C34.4443 21.3561 34.2198 21.7235 33.8658 21.8046C33.8183 21.8158 33.7713 21.8209 33.7249 21.8209ZM32.8897 19.4597C32.656 19.4597 32.4297 19.3285 32.3111 19.0974C32.2792 19.0354 32.2466 18.9738 32.2133 18.9127C32.0328 18.5825 32.1413 18.1611 32.4555 17.9716C32.7698 17.7821 33.1713 17.8958 33.3518 18.2259C33.3912 18.2978 33.4295 18.37 33.4667 18.4428C33.6387 18.778 33.5194 19.1962 33.2004 19.3768C33.1015 19.4331 32.9949 19.4597 32.8897 19.4597ZM31.4687 17.4287C31.2976 17.4287 31.1265 17.3588 30.998 17.2196C30.9512 17.1693 30.9042 17.1197 30.8562 17.0705C30.5963 16.8051 30.5908 16.3686 30.8438 16.0959C31.0965 15.8229 31.5125 15.8172 31.772 16.0828C31.8286 16.1407 31.8847 16.1995 31.9396 16.259C32.1923 16.5322 32.1862 16.9685 31.9262 17.2336C31.7984 17.3641 31.6335 17.4287 31.4687 17.4287Z" fill="#272725"/>
<path d="M33.9165 24.2178C33.9047 24.2178 33.8931 24.2176 33.8813 24.2169C33.5192 24.1967 33.2413 23.8722 33.2603 23.4922L33.2649 23.3898C33.2776 23.0091 33.5804 22.7076 33.9441 22.7251C34.3065 22.7386 34.5898 23.0578 34.5771 23.4382L34.5719 23.5651C34.5528 23.9327 34.2631 24.2178 33.9165 24.2178Z" fill="#272725"/>
<path d="M28.637 26.7058C28.4977 26.7058 28.3574 26.6596 28.2384 26.5638L24.612 23.6469C24.4498 23.5164 24.3547 23.3142 24.3547 23.0996V17.4164C24.3547 17.0357 24.6485 16.7272 25.0111 16.7272C25.3737 16.7272 25.6675 17.0357 25.6675 17.4164V22.7593L29.0366 25.4693C29.3245 25.7009 29.379 26.1335 29.1587 26.4356C29.0294 26.6128 28.8344 26.7058 28.637 26.7058Z" fill="#272725"/>
<path d="M26.2402 16.1085C26.1176 16.1085 25.9953 16.0726 25.8874 16.0005C25.6636 15.8507 25.5476 15.5738 25.5938 15.2995L26.0253 12.73C26.0712 12.4554 26.2704 12.2369 26.5297 12.1767C26.79 12.1158 27.0574 12.2261 27.2095 12.4543L28.2174 13.9656C28.4254 14.2776 28.3532 14.7072 28.0563 14.9255L26.617 15.9837C26.5038 16.0669 26.3719 16.1085 26.2402 16.1085Z" fill="#272725"/>
</g>
<rect width="48" height="48" rx="20" fill="#E2AD39"/>
<g clip-path="url(#clip2_473_452)">
<path d="M25.2818 32.8382C24.4312 32.8382 23.5674 32.7149 22.7101 32.4552C17.7852 30.9637 14.9341 25.5436 16.3542 20.3728C17.0422 17.8678 18.618 15.7938 20.7913 14.5333C22.9648 13.2727 25.4754 12.9761 27.8611 13.6989C28.2095 13.8043 28.4106 14.1864 28.3101 14.5522C28.2097 14.918 27.846 15.1289 27.4975 15.0234C25.4485 14.4033 23.2925 14.6576 21.4261 15.74C19.5596 16.8224 18.2065 18.6034 17.6157 20.7546C16.3962 25.195 18.8447 29.8498 23.0739 31.1305C27.3029 32.4111 31.7361 29.8397 32.9557 25.3993C33.0562 25.0335 33.4196 24.8222 33.7684 24.9278C34.1168 25.0333 34.3178 25.4154 34.2174 25.7811C33.0441 30.0523 29.318 32.8382 25.2818 32.8382Z" fill="#272725"/>
<path d="M29.5692 15.887C29.4585 15.887 29.346 15.8576 29.2431 15.7956L29.1561 15.7441C28.8388 15.5598 28.7239 15.1403 28.8994 14.8072C29.0751 14.4742 29.4744 14.3532 29.7915 14.5379L29.8965 14.5999C30.2112 14.7895 30.3197 15.2106 30.139 15.5408C30.018 15.7627 29.7967 15.887 29.5692 15.887Z" fill="#272725"/>
<path d="M33.7249 21.8209C33.4229 21.8209 33.1514 21.601 33.0842 21.2787C33.07 21.21 33.0544 21.1415 33.0385 21.0735C32.9514 20.7041 33.1658 20.3302 33.5179 20.2386C33.8706 20.1471 34.2257 20.3725 34.313 20.742C34.3321 20.8224 34.35 20.903 34.3669 20.9841C34.4443 21.3561 34.2198 21.7235 33.8658 21.8046C33.8183 21.8158 33.7713 21.8209 33.7249 21.8209ZM32.8897 19.4597C32.656 19.4597 32.4297 19.3285 32.3111 19.0974C32.2792 19.0354 32.2466 18.9738 32.2133 18.9127C32.0328 18.5825 32.1413 18.1611 32.4555 17.9716C32.7698 17.7821 33.1713 17.8958 33.3518 18.2259C33.3912 18.2978 33.4295 18.37 33.4667 18.4428C33.6387 18.778 33.5194 19.1962 33.2004 19.3768C33.1015 19.4331 32.9949 19.4597 32.8897 19.4597ZM31.4687 17.4287C31.2976 17.4287 31.1265 17.3588 30.998 17.2196C30.9512 17.1693 30.9042 17.1197 30.8562 17.0705C30.5963 16.8051 30.5908 16.3686 30.8438 16.0959C31.0965 15.8229 31.5125 15.8172 31.772 16.0828C31.8286 16.1407 31.8847 16.1995 31.9396 16.259C32.1923 16.5322 32.1862 16.9685 31.9262 17.2336C31.7984 17.3641 31.6335 17.4287 31.4687 17.4287Z" fill="#272725"/>
<path d="M33.9165 24.2178C33.9047 24.2178 33.8931 24.2176 33.8813 24.2169C33.5192 24.1967 33.2413 23.8722 33.2603 23.4922L33.2649 23.3898C33.2776 23.0091 33.5804 22.7076 33.9441 22.7251C34.3065 22.7386 34.5898 23.0578 34.5771 23.4382L34.5719 23.5651C34.5528 23.9327 34.2631 24.2178 33.9165 24.2178Z" fill="#272725"/>
<path d="M28.637 26.7058C28.4977 26.7058 28.3574 26.6596 28.2384 26.5638L24.612 23.6469C24.4498 23.5164 24.3547 23.3142 24.3547 23.0996V17.4164C24.3547 17.0357 24.6485 16.7272 25.0111 16.7272C25.3737 16.7272 25.6675 17.0357 25.6675 17.4164V22.7593L29.0366 25.4693C29.3245 25.7009 29.379 26.1335 29.1587 26.4356C29.0294 26.6128 28.8344 26.7058 28.637 26.7058Z" fill="#272725"/>
<path d="M26.2402 16.1085C26.1176 16.1085 25.9953 16.0726 25.8874 16.0005C25.6636 15.8507 25.5476 15.5738 25.5938 15.2995L26.0253 12.73C26.0712 12.4554 26.2704 12.2369 26.5297 12.1767C26.79 12.1158 27.0574 12.2261 27.2095 12.4543L28.2174 13.9656C28.4254 14.2776 28.3532 14.7072 28.0563 14.9255L26.617 15.9837C26.5038 16.0669 26.3719 16.1085 26.2402 16.1085Z" fill="#272725"/>
</g>
<defs>
<clipPath id="clip0_473_452">
<rect width="20" height="21" fill="white" transform="translate(16 12)"/>
</clipPath>
<clipPath id="clip1_473_452">
<rect width="20" height="21" fill="white" transform="translate(16 12)"/>
</clipPath>
<clipPath id="clip2_473_452">
<rect width="20" height="21" fill="white" transform="translate(16 12)"/>
</clipPath>
</defs>
</svg>
