<svg width="48" height="48" viewBox="0 0 48 48" fill="none" xmlns="http://www.w3.org/2000/svg">
<rect width="48" height="48" rx="20" fill="#E2AD39"/>
<path d="M27.0465 35.5H16.3535C15.0695 35.5 14.0251 34.4556 14.0251 33.1717V16.3535C14.0251 15.0695 15.0695 14.0251 16.3535 14.0251H33.1717C34.4556 14.0251 35.5 15.0695 35.5 16.3535V27.5274C35.5 27.9227 35.1796 28.2432 34.7842 28.2432C34.3888 28.2432 34.0683 27.9227 34.0683 27.5274V16.3535C34.0683 15.8591 33.6661 15.4568 33.1717 15.4568H16.3535C15.8591 15.4568 15.4568 15.8591 15.4568 16.3535V33.1717C15.4568 33.6661 15.8591 34.0684 16.3535 34.0684H27.0465C27.4419 34.0684 27.7624 34.3888 27.7624 34.7842C27.7624 35.1796 27.4419 35.5 27.0465 35.5Z" fill="#272725"/>
<path d="M31.076 20.0121H18.4492C18.0538 20.0121 17.7334 19.6916 17.7334 19.2963C17.7334 18.9009 18.0538 18.5804 18.4492 18.5804H31.076C31.4713 18.5804 31.7918 18.9009 31.7918 19.2963C31.7918 19.6916 31.4713 20.0121 31.076 20.0121Z" fill="#272725"/>
<path d="M31.076 23.6564H18.4492C18.0538 23.6564 17.7334 23.3359 17.7334 22.9406C17.7334 22.5452 18.0538 22.2247 18.4492 22.2247H31.076C31.4713 22.2247 31.7918 22.5452 31.7918 22.9406C31.7918 23.3359 31.4713 23.6564 31.076 23.6564Z" fill="#272725"/>
<path d="M21.9654 27.3007H18.4492C18.0538 27.3007 17.7334 26.9802 17.7334 26.5848C17.7334 26.1895 18.0538 25.869 18.4492 25.869H21.9654C22.3607 25.869 22.6812 26.1895 22.6812 26.5848C22.6812 26.9802 22.3607 27.3007 21.9654 27.3007Z" fill="#272725"/>
<path d="M24.2431 30.9447H18.4492C18.0538 30.9447 17.7334 30.6243 17.7334 30.2289C17.7334 29.8335 18.0538 29.5131 18.4492 29.5131H24.2431C24.6385 29.5131 24.959 29.8335 24.959 30.2289C24.959 30.6243 24.6383 30.9447 24.2431 30.9447Z" fill="#272725"/>
<path d="M34.9627 31.4262L30.4095 26.873C30.0735 26.5371 29.656 26.2861 29.2014 26.1472L26.8139 25.4178C26.4173 25.2954 25.989 25.403 25.696 25.6962C25.4028 25.9895 25.2961 26.4175 25.4173 26.8139L26.147 29.2016C26.2859 29.656 26.5369 30.0735 26.8728 30.4097L31.426 34.9629C31.7841 35.321 32.2549 35.5 32.7255 35.5C33.1962 35.5 33.6668 35.321 34.0249 34.9626L34.9627 34.0249C35.6792 33.3084 35.6792 32.1427 34.9627 31.4262Z" fill="#272725"/>
</svg>
