<svg width="48" height="48" viewBox="0 0 48 48" fill="none" xmlns="http://www.w3.org/2000/svg">
<rect width="48" height="48" rx="20" fill="#E2AD39"/>
<path d="M34.6845 13.7642C34.2937 13.1074 33.3685 13.0403 32.8869 13.6337L24.852 23.5398C24.6553 23.7821 24.2815 23.7688 24.1025 23.5133L22.1767 20.7632C21.5215 19.8274 20.1574 19.7672 19.4222 20.6412C18.9152 21.2441 18.8768 22.1123 19.3285 22.7574L23.2704 28.3869C23.7501 29.072 24.7654 29.0708 25.2435 28.3843L26.375 26.76L34.6402 14.9562C34.8881 14.6021 34.9053 14.1357 34.6845 13.7642Z" fill="#272725"/>
<path d="M24.5 33.8389C18.7991 33.8389 14.1611 29.2009 14.1611 23.5C14.1611 17.7992 18.7991 13.1611 24.5 13.1611C25.8951 13.1611 27.2495 13.4345 28.5248 13.974C28.9921 14.1718 29.2109 14.711 29.013 15.1784C28.8157 15.6459 28.2762 15.8646 27.8087 15.6668C26.7612 15.2239 25.6478 14.9992 24.5 14.9992C19.8126 14.9992 15.9991 18.8126 15.9991 23.5C15.9991 28.1874 19.8126 32.0009 24.5 32.0009C29.1874 32.0009 33.0009 28.1874 33.0009 23.5C33.0009 22.7538 32.9044 22.0138 32.7139 21.3006C32.5829 20.8103 32.8743 20.3065 33.3646 20.1755C33.8546 20.0443 34.3585 20.3359 34.4894 20.8264C34.7213 21.6942 34.8389 22.5936 34.8389 23.5C34.8389 29.2009 30.2009 33.8389 24.5 33.8389Z" fill="#272725"/>
</svg>
